<?xml version="1.0" standalone="no"?>
<!DOCTYPE svg PUBLIC "-//W3C//DTD SVG 20010904//EN" "http://www.w3.org/TR/2001/REC-SVG-20010904/DTD/svg10.dtd">
<svg version="1.0" xmlns="http://www.w3.org/2000/svg" width="752.000000pt" height="165.000000pt" viewBox="0 0 752.000000 165.000000" preserveAspectRatio="xMidYMid meet">

  <g transform="translate(0.000000,165.000000) scale(0.100000,-0.100000)" fill="#07385D" stroke="none">
    <path d="M198 1598 l-3 -43 -52 -3 -53 -3 0 -35 c0 -34 0 -34 -45 -34 l-45 0
0 -740 0 -740 3760 0 3760 0 0 555 0 554 -57 3 -58 3 -3 98 -3 97 -87 0 -88 0
-54 55 -54 55 -56 -55 -56 -55 -86 0 -87 0 -3 -97 -3 -98 -52 -3 -53 -3 0 -40
0 -39 -45 0 -45 0 0 130 0 130 -100 0 -100 0 0 -130 0 -130 -55 0 -55 0 0 195
0 195 -62 0 -63 0 -215 -186 c-213 -184 -215 -185 -218 -155 -3 27 -7 31 -33
31 l-29 0 0 100 0 100 -50 0 -50 0 0 85 0 85 -70 0 -70 0 0 -85 0 -85 -50 0
-50 0 0 -100 0 -100 -30 0 -30 0 0 -225 0 -225 -40 0 c-39 0 -40 1 -40 35 l0
35 -50 0 -50 0 0 45 0 45 -175 0 -175 0 0 -45 0 -45 -50 0 -50 0 0 -35 c0 -35
0 -35 -45 -35 l-44 0 -3 -68 -3 -67 -60 0 -60 0 -3 53 -3 52 -50 0 -49 0 0 60
0 60 -85 0 -85 0 0 -59 0 -60 -52 -3 -53 -3 -3 -53 -3 -52 -60 0 c-59 0 -59 0
-59 30 l0 30 -68 0 c-56 0 -112 -14 -342 -85 -151 -47 -278 -85 -282 -85 -5 0
-8 38 -8 85 l0 85 -270 0 -270 0 0 -50 0 -50 -110 0 -110 0 0 98 -1 97 -181
200 c-99 110 -204 226 -233 258 l-52 59 -236 -262 -237 -262 0 -164 0 -164
-65 0 -65 0 0 165 0 165 -29 0 c-28 0 -29 1 -33 62 -4 57 -7 64 -46 98 -53 47
-112 64 -201 58 -124 -9 -201 -74 -201 -169 0 -48 -1 -49 -30 -49 l-30 0 0
-165 0 -165 -55 0 -55 0 0 569 0 570 -42 3 c-40 3 -43 5 -46 36 -3 31 -4 32
-53 32 l-49 0 0 45 0 45 -174 0 -175 0 -3 -42z" />
  </g>
</svg>